<?xml version="1.0" encoding="utf-8"?>
<!-- Generator: Adobe Illustrator 16.0.0, SVG Export Plug-In . SVG Version: 6.00 Build 0)  -->
<!DOCTYPE svg PUBLIC "-//W3C//DTD SVG 1.1//EN" "http://www.w3.org/Graphics/SVG/1.1/DTD/svg11.dtd">
<svg version="1.1" id="Layer_1" xmlns="http://www.w3.org/2000/svg" xmlns:xlink="http://www.w3.org/1999/xlink" x="0px" y="0px"
	 width="480px" height="320px" viewBox="0 0 480 320" enable-background="new 0 0 480 320" xml:space="preserve">
<text transform="matrix(1 0 0 1 110.7505 209.1836)" fill="#54150E" font-family="'BookAntiqua'" font-size="110.1162">DLC</text>
<text transform="matrix(0.9925 0 0 1 17.771 257.5547)" fill="#54150E" font-family="'BookAntiqua'" font-size="45.1436">METAL WORKS, LLC</text>
<g>
	<polygon fill="#4C4C4C" points="425.079,214.055 418.642,153.783 224.373,87.668 30.105,153.783 23.665,214.055 18.478,214.197 
		20.486,143.19 224.373,82.704 428.259,143.19 430.265,214.197 	"/>
</g>
<g>
	<polyline fill="#4C4C4C" points="37.118,136.027 241.004,68.384 444.889,128.87 446.896,199.877 441.713,199.734 435.271,139.462 
		241.004,73.348 	"/>
</g>
<g>
	<polyline fill="#4C4C4C" points="52.366,128.888 256.254,54.088 460.139,114.575 462.146,185.582 456.961,185.439 450.521,125.167 
		256.254,59.053 	"/>
</g>
<line fill="none" stroke="#4C4C4C" stroke-width="2" stroke-miterlimit="10" x1="47.709" y1="216.344" x2="399.043" y2="216.344"/>
</svg>
